#!OML:ASF X:\für Bonn\!DataBase\2005_08_11_Bastian_Final\c3d\Bastian.ASF
:FULLY-SPECIFIED
:DEGREES
64
root -2.25342 16.1258 -25.1853 141.021 -29.7629 -171.48
lowerback 26.7187 3.33356 6.60696
upperback 15.4751 2.57471 0.524044
thorax 3.00863 0.343419 -3.81731
lowerneck 6.03595 -7.63015 -10.2663
upperneck 1.7549 -11.9142 20.9925
head 1.39756 -6.42713 8.04104
rclavicle -9.93923e-016 4.69132e-014
rhumerus 6.56834 25.5126 -79.5545
rradius 119.986
rwrist 14.3601
rhand -29.2228 5.12818
rfingers 7.12502
rthumb -2.56686 -24.8361
lclavicle -9.93923e-016 4.69132e-014
lhumerus 20.6826 -48.1633 81.4392
lradius 107.036
lwrist 45.1393
lhand -13.4581 -22.4575
lfingers 7.12502
lthumb 12.6516 7.13932
rfemur 0.894827 -7.60747 20.1855
rtibia 47.375
rfoot -185.997 -180.659
rtoes -6.9965
lfemur -27.3606 -5.86576 -3.1535
ltibia 123.029
lfoot 17.296 -11.724
ltoes -34.5649
65
root -2.21511 16.1364 -25.2758 139.541 -29.298 -171.448
lowerback 28.0114 3.67056 7.03139
upperback 15.956 2.92597 0.62409
thorax 3.07257 0.447086 -4.06311
lowerneck 6.17639 -7.49071 -10.0465
upperneck 1.97684 -11.7807 21.1226
head 1.40809 -6.36967 8.05831
rclavicle -1.61016e-014 -4.77083e-015
rhumerus 7.02822 25.094 -79.5299
rradius 119.637
rwrist 14.4951
rhand -28.6305 5.31343
rfingers 7.12502
rthumb -1.99487 -24.657
lclavicle -1.61016e-014 -4.77083e-015
lhumerus 20.6935 -48.0481 81.3251
lradius 107.087
lwrist 45.289
lhand -13.4919 -22.6074
lfingers 7.12502
lthumb 12.619 6.99146
rfemur 3.00944 -7.8027 20.3874
rtibia 46.8689
rfoot -186.152 -180.394
rtoes -6.32279
lfemur -30.5298 -2.58518 -3.69924
ltibia 125.621
lfoot 16.7095 -10.6047
ltoes -36.0275
66
root -2.17754 16.1474 -25.3673 138.017 -28.794 -171.459
lowerback 29.3991 4.01761 7.47041
upperback 16.4423 3.28566 0.742009
thorax 3.12635 0.545701 -4.30849
lowerneck 6.24602 -7.35019 -9.91193
upperneck 2.22277 -11.6549 21.3095
head 1.44725 -6.31217 8.10348
rclavicle -2.46493e-014 0
rhumerus 7.37779 24.7067 -79.6185
rradius 119.323
rwrist 14.7089
rhand -28.0242 5.45709
rfingers 7.12502
rthumb -1.40928 -24.518
lclavicle -2.46493e-014 0
lhumerus 20.6667 -48.0336 81.259
lradius 107.255
lwrist 45.6076
lhand -13.6877 -22.6663
lfingers 7.12502
lthumb 12.4302 6.94412
rfemur 5.22996 -7.95045 20.5583
rtibia 46.2974
rfoot -186.275 -180.099
rtoes -5.59099
lfemur -33.6395 0.76045 -4.71564
ltibia 127.471
lfoot 16.1831 -9.8249
ltoes -35.3161
67
root -2.14319 16.1513 -25.4586 136.416 -28.2386 -171.492
lowerback 31.1946 4.32633 8.04233
upperback 16.9158 3.66848 0.689869
thorax 2.94373 0.637552 -4.50826
lowerneck 6.19524 -7.23269 -9.8401
upperneck 2.52705 -11.573 21.5442
head 1.53723 -6.26821 8.16527
rclavicle 3.22031e-014 -1.59028e-015
rhumerus 7.77553 24.3453 -79.6981
rradius 119.047
rwrist 14.7598
rhand -27.403 5.63424
rfingers 7.12502
rthumb -0.809272 -24.344
lclavicle 3.22031e-014 -1.59028e-015
lhumerus 20.6961 -48.0951 81.1087
lradius 107.47
lwrist 46.1369
lhand -13.9233 -22.7687
lfingers 7.12502
lthumb 12.203 6.85534
rfemur 7.54524 -8.08763 20.6961
rtibia 45.6964
rfoot -186.365 -179.763
rtoes -4.81623
lfemur -36.6729 3.899 -6.10197
ltibia 128.606
lfoot 15.9994 -9.91481
ltoes -36.0431
68
root -2.11064 16.1522 -25.5501 134.752 -27.6085 -171.586
lowerback 32.8321 4.66838 8.61019
upperback 17.4129 4.04183 0.790622
thorax 2.99118 0.725988 -4.81347
lowerneck 6.26681 -7.07699 -9.82504
upperneck 2.72884 -11.4393 21.8651
head 1.57622 -6.21143 8.27656
rclavicle -4.73108e-014 3.97569e-014
rhumerus 8.06409 24.0548 -79.8469
rradius 118.79
rwrist 14.7821
rhand -26.8655 5.91787
rfingers 7.12502
rthumb -0.290205 -24.0617
lclavicle -4.73108e-014 3.97569e-014
lhumerus 20.6429 -48.1933 80.9907
lradius 107.725
lwrist 46.6695
lhand -14.2375 -22.8354
lfingers 7.12502
lthumb 11.9001 6.8064
rfemur 9.95107 -8.0311 20.8937
rtibia 45.1064
rfoot -186.468 -179.531
rtoes -4.23502
lfemur -39.765 6.69807 -7.78635
ltibia 129.054
lfoot 16.2634 -10.587
ltoes -38.4958
69
root -2.08228 16.148 -25.6424 133.029 -26.9134 -171.732
lowerback 34.5303 5.00977 9.24745
upperback 17.9446 4.4143 0.881609
thorax 3.10155 0.807779 -5.16639
lowerneck 6.21095 -6.94544 -9.7605
upperneck 2.99179 -11.3394 22.1523
head 1.65503 -6.16064 8.35948
rclavicle 8.74653e-015 -1.27222e-014
rhumerus 8.34086 23.8105 -79.9772
rradius 118.597
rwrist 14.7589
rhand -26.409 6.16005
rfingers 7.12502
rthumb 0.150762 -23.8196
lclavicle 8.74653e-015 -1.27222e-014
lhumerus 20.6458 -48.304 80.767
lradius 108.005
lwrist 47.2375
lhand -14.563 -22.9369
lfingers 7.12502
lthumb 11.5862 6.72279
rfemur 12.4074 -8.06944 20.9808
rtibia 44.5939
rfoot -186.601 -179.117
rtoes -3.58459
lfemur -43.0915 9.03144 -9.74462
ltibia 128.904
lfoot 17.0344 -11.6585
ltoes -39.4813
70
root -2.05628 16.1374 -25.7366 131.356 -26.2179 -171.958
lowerback 36.2233 5.35101 9.85957
upperback 18.4613 4.78063 0.961201
thorax 3.23307 0.880766 -5.5167
lowerneck 6.20131 -6.8035 -9.74829
upperneck 3.20575 -11.228 22.495
head 1.71568 -6.10988 8.47434
rclavicle -9.34288e-014 7.95139e-015
rhumerus 8.51708 23.6687 -80.0985
rradius 118.482
rwrist 14.6573
rhand -26.0866 6.36892
rfingers 7.12502
rthumb 0.462106 -23.6103
lclavicle -9.34288e-014 7.95139e-015
lhumerus 20.6473 -48.4018 80.5518
lradius 108.309
lwrist 47.7975
lhand -14.8398 -22.9872
lfingers 7.12502
lthumb 11.3193 6.68739
rfemur 14.8071 -8.17218 20.9209
rtibia 44.1724
rfoot -186.768 -178.573
rtoes -2.85787
lfemur -46.5647 10.7827 -12.0239
ltibia 128.031
lfoot 17.7672 -13.3647
ltoes -40.5178
71
root -2.03308 16.1163 -25.8347 129.764 -25.5051 -172.27
lowerback 37.7659 5.6832 10.4904
upperback 19.0771 5.09232 0.941262
thorax 3.56656 0.933286 -5.96556
lowerneck 5.98258 -6.66253 -9.57082
upperneck 3.4239 -11.1043 22.8368
head 1.80195 -6.04061 8.55062
rclavicle -1.00585e-013 2.22639e-014
rhumerus 8.80609 23.5434 -80.3131
rradius 118.403
rwrist 14.6247
rhand -25.8293 6.63178
rfingers 7.12502
rthumb 0.710572 -23.3468
lclavicle -1.00585e-013 2.22639e-014
lhumerus 20.9207 -48.3996 79.9279
lradius 108.612
lwrist 48.2386
lhand -15.0546 -22.9926
lfingers 7.12502
lthumb 11.1121 6.69324
rfemur 17.0936 -8.19348 20.8184
rtibia 43.8798
rfoot -187.001 -178.033
rtoes -2.1231
lfemur -49.9531 12.0171 -14.4062
ltibia 126.441
lfoot 18.4997 -15.3011
ltoes -41.1936
